<svg width="999" height="171" viewBox="0 0 999 171" xmlns="http://www.w3.org/2000/svg"><title>googletrendslogo</title><g fill="#BEBEBE" fill-rule="evenodd"><path d="M127.074 60.348H66.831v17.719h42.524c-2.126 24.806-23.388 36.145-42.524 36.145-25.515 0-47.486-19.844-47.486-47.485 0-26.933 21.262-48.195 47.486-48.195 20.553 0 32.602 12.757 32.602 12.757l12.757-12.757S95.89.813 66.83.813C29.268.813.21 32.707.21 66.727c0 33.31 26.932 65.913 67.33 65.913 35.438 0 60.952-24.097 60.952-59.535-.708-8.505-1.417-12.757-1.417-12.757zM176.686 47.59c-24.806 0-42.525 19.137-42.525 41.816 0 22.68 17.01 42.525 42.525 42.525 23.389 0 42.525-17.719 42.525-42.525-.709-27.64-22.68-41.815-42.525-41.815zm0 16.302c12.049 0 24.097 9.922 24.097 25.514 0 15.593-11.34 25.515-24.097 25.515-13.466 0-24.097-10.63-24.097-25.515 0-14.174 10.63-25.514 24.097-25.514zM268.823 47.59c-24.806 0-42.525 19.137-42.525 41.816 0 22.68 17.01 42.525 42.525 42.525 23.388 0 42.524-17.719 42.524-42.525 0-27.64-21.97-41.815-42.524-41.815zm0 16.302c12.048 0 24.097 9.922 24.097 25.514 0 15.593-11.34 25.515-24.097 25.515-13.466 0-24.097-10.63-24.097-25.515 0-14.174 10.63-25.514 24.097-25.514zM359.542 47.59c-22.68 0-40.398 19.845-40.398 42.525 0 25.515 20.553 42.525 40.398 42.525 12.049 0 18.427-4.961 23.389-10.631v8.505c0 14.883-9.214 23.388-21.971 23.388-12.758 0-19.137-9.922-21.972-14.883l-16.3 7.087c5.67 12.049 17.718 24.806 38.272 24.806 22.68 0 39.69-14.175 39.69-43.942V50.425h-18.428v7.088c-4.961-6.379-12.758-9.922-22.68-9.922zm2.126 16.302c11.34 0 22.68 9.213 22.68 25.514 0 16.302-11.34 25.515-22.68 25.515-12.048 0-23.388-9.922-23.388-25.515-.709-15.592 11.34-25.514 23.388-25.514zM479.32 47.59c-21.262 0-39.69 17.01-39.69 42.525 0 26.932 19.845 42.525 41.816 42.525 17.719 0 29.059-9.923 35.437-18.428L502 104.29c-3.544 5.67-9.923 11.34-20.554 11.34-12.049 0-17.719-6.379-20.554-12.757l56.7-23.389-2.835-7.087C509.087 58.93 496.33 47.59 479.32 47.59zm.709 16.302c7.796 0 13.466 4.252 15.592 9.213l-37.563 15.593c-2.127-12.049 9.922-24.806 21.97-24.806zM412.698 129.805h18.427V5.065h-18.427z"/><g><path d="M881.034 131.527c-9.717 0-18.268-3.887-25.653-11.66-7.384-7.774-10.882-17.49-10.882-28.762 0-11.66 3.498-20.988 10.882-28.762 6.996-7.773 15.547-11.66 25.653-11.66 5.83 0 10.882 1.166 15.546 3.887 4.664 2.332 8.162 5.441 10.494 9.328h.778l-.778-10.494v-34.98h14.381v110.77h-13.603v-10.493h-.778c-2.332 3.886-5.83 6.996-10.494 9.328-4.275 2.332-9.716 3.498-15.546 3.498zm2.332-13.215c6.607 0 12.437-2.332 17.101-7.385 4.664-5.052 6.996-11.66 6.996-20.21 0-8.551-2.332-15.159-6.996-20.211-4.664-5.053-10.494-7.385-17.101-7.385-6.608 0-12.438 2.332-17.102 7.385-4.664 5.052-6.996 11.66-6.996 19.822 0 8.162 2.332 14.77 6.996 19.822 5.053 5.83 10.494 8.162 17.102 8.162zM595.75 129.195h-14.381V31.639h-31.094V18.035h76.568V31.64H595.75zM644.333 129.195h-14.38v-76.18h13.603v12.438h.777c1.555-4.276 4.276-7.385 8.94-10.106 4.664-2.72 8.94-3.886 13.215-3.886s7.773.777 10.882 1.943L671.93 66.62c-1.943-.777-4.275-1.166-7.773-1.166-5.053 0-9.717 1.943-13.604 6.219-3.887 4.275-5.83 9.328-5.83 15.935v41.588h-.389zM715.46 131.527c-11.66 0-20.988-3.887-27.984-11.66-6.996-7.774-10.883-17.49-10.883-29.15 0-11.272 3.498-20.6 10.494-28.762 6.996-8.162 15.936-12.049 26.818-12.049 11.272 0 20.211 3.498 27.207 10.883 6.608 7.385 10.106 17.101 10.106 29.539v2.72h-60.244c.389 7.774 3.11 13.604 7.773 18.268 4.664 4.664 10.106 6.607 16.713 6.607 10.105 0 17.102-4.275 20.988-13.214l12.826 5.44c-2.332 5.831-6.607 10.884-12.437 14.77-6.219 4.664-13.215 6.608-21.377 6.608zm20.6-49.75c-.39-4.275-2.332-8.55-5.83-12.437-3.498-3.887-9.329-5.83-16.325-5.83-5.441 0-9.716 1.554-13.603 5.052-3.887 3.498-6.607 7.774-8.162 13.215h43.92zM778.813 53.015V63.51h.778c1.943-3.498 5.441-6.607 9.716-9.328 4.276-2.72 9.328-3.886 14.381-3.886 9.328 0 16.713 2.72 21.766 8.55 5.052 5.83 7.384 13.604 7.384 23.32v46.641h-14.38V84.498c0-13.992-6.22-20.989-18.657-20.989-5.83 0-10.882 2.333-14.38 6.997-3.887 4.664-5.442 10.105-5.442 16.324v42.365H765.6v-76.18h13.214zM968.484 131.527c-8.55 0-15.547-1.944-20.988-6.219-5.441-4.275-9.717-9.328-12.049-15.547l12.826-5.441c3.887 9.717 10.883 14.38 20.6 14.38 4.275 0 8.162-1.165 10.883-3.109 2.72-1.943 4.275-4.664 4.275-7.773 0-5.053-3.498-8.162-10.494-10.106l-15.547-3.886c-5.053-1.166-9.328-3.498-13.992-6.996-4.664-3.498-6.607-8.162-6.607-13.992 0-6.608 3.109-12.05 8.94-16.325 5.83-4.275 13.214-6.218 21.376-6.218 6.607 0 12.826 1.554 17.879 4.664 5.441 3.11 8.94 7.384 11.271 13.215l-12.437 5.052c-2.72-6.607-8.551-10.105-17.49-10.105-4.276 0-7.774.777-10.883 2.72-2.72 1.944-4.276 4.276-4.276 6.997 0 4.275 3.498 7.384 10.106 8.939l15.158 3.498c6.996 1.555 12.437 4.664 15.935 8.55 3.499 3.887 5.053 8.552 5.053 13.604 0 6.996-2.72 12.438-8.55 17.102-5.053 4.664-12.05 6.996-20.989 6.996z"/></g></g></svg>