<svg width="28" height="24" viewBox="0 0 28 24" xmlns="http://www.w3.org/2000/svg"><title>Icon</title><path d="M23.443 2.605A5.809 5.809 0 0 0 19.273.74a5.615 5.615 0 0 0-5.71 5.642c0 .45.05.888.147 1.308C8.963 7.4 4.755 5.057 1.938 1.525a5.744 5.744 0 0 0-.773 2.895 5.862 5.862 0 0 0 2.54 4.837A5.677 5.677 0 0 1 1.12 8.51v.072c0 2.801 1.968 5.152 4.58 5.699a5.656 5.656 0 0 1-2.579.082c.727 2.298 2.836 3.974 5.336 4.03a11.394 11.394 0 0 1-7.094 2.448c-.46 0-.915-.029-1.362-.083a16.005 16.005 0 0 0 8.755 2.602c10.505.002 16.25-8.664 16.25-16.18 0-.247-.005-.492-.016-.736a11.396 11.396 0 0 0 2.85-2.905 11.37 11.37 0 0 1-3.28.85 5.6 5.6 0 0 0 2.51-3.11 11.333 11.333 0 0 1-3.626 1.327z" fill="#67879B" fill-rule="evenodd"/></svg>